<?xml version="1.0" encoding="utf-8"?>
<!DOCTYPE svg PUBLIC "-//W3C//DTD SVG 1.0//EN" "http://www.w3.org/TR/2001/REC-SVG-20010904/DTD/svg10.dtd">
<svg version="1.0" xmlns="http://www.w3.org/2000/svg" width="232px" height="210px" viewBox="0 0 232 210" preserveAspectRatio="xMidYMid meet">
 <g fill="#f6f6f8">
  <path d="M0 105 l0 -105 116 0 116 0 0 105 0 105 -116 0 -116 0 0 -105z m131.40 97 c5.15 -0.60 10.60 -1.40 12.15 -1.75 1.55 -0.40 3.75 -0.75 4.85 -0.75 1.10 0 2.10 -0.15 2.20 -0.40 0.10 -0.20 1.65 -1 3.50 -1.80 5.25 -2.20 5.50 -3.15 1.45 -4.90 -5.60 -2.40 -14.90 -4.25 -25.05 -4.90 -3.70 -0.25 -7.15 -0.60 -7.60 -0.75 -0.60 -0.25 -0.90 -0.90 -0.90 -1.85 0 -1.10 1 -2.75 4.15 -6.55 12.95 -15.90 16.20 -19.90 22.70 -28 22.70 -28.20 29.45 -39.65 33.70 -57.25 1.40 -5.70 1.55 -7.15 1.55 -14.10 0 -12 -2.50 -22 -8.25 -33.15 -10.50 -20.30 -30.15 -35.60 -51.20 -39.90 -3.05 -0.65 -3.15 -0.60 -4.40 0.55 -2.80 2.65 -0.85 5.15 5.10 6.45 16.75 3.80 31.20 13.75 40.75 28.10 4.85 7.30 7.20 12.70 9.50 21.70 1.05 4.05 1.15 5.65 1.15 16 0 12 -0.15 13.10 -2.75 21.50 -2.75 8.85 -8.90 19.80 -16.80 30.05 -1.05 1.40 -2.60 3.40 -3.45 4.50 -1.65 2.15 -25.75 32 -29 35.95 -1.15 1.40 -3.20 3.85 -4.55 5.55 -10.90 13.45 -10.65 13.20 -12.35 13.20 -1.35 0 -2 -0.50 -4.10 -3.10 -1.35 -1.65 -4.75 -5.75 -7.50 -9.10 -7.25 -8.80 -31.90 -39.65 -36.65 -45.85 -14.55 -19.15 -20.15 -32.15 -20.90 -48.40 -0.60 -12.75 1.30 -22.90 6.25 -33.15 6 -12.40 14.60 -22.05 25.75 -28.90 8.95 -5.45 19.70 -8.70 30.90 -9.35 4.40 -0.25 5.55 -0.50 6.55 -1.35 1.90 -1.55 2.10 -2.95 0.70 -4.55 -1.10 -1.30 -1.40 -1.40 -4.90 -1.30 -10.05 0.25 -20.10 2.85 -30 7.75 -20.65 10.35 -34.40 27.85 -40.75 51.85 -1.25 4.80 -1.35 5.95 -1.35 14.70 0 5.95 0.20 10.35 0.60 11.75 0.35 1.25 0.80 3.25 1.10 4.40 1.50 7.15 6.75 18.95 12.15 27.30 4.75 7.35 15.75 21.45 42.95 55.05 2.65 3.25 4.85 6.25 4.85 6.60 0 0.35 0.35 0.65 0.75 0.65 0.50 0 0.75 0.55 0.75 1.75 l0 1.75 -5 -0.30 c-5 -0.35 -18.95 0.85 -21.25 1.85 -1.70 0.70 -4.95 1.45 -6.40 1.45 -0.75 0 -1.75 0.45 -2.20 1 -0.50 0.55 -1.10 1 -1.45 1 -0.30 0 -0.95 0.45 -1.50 1.05 -0.95 1.05 -0.90 1.05 0.25 2 0.65 0.50 1.55 0.95 2.10 0.95 0.50 0 1 0.20 1.15 0.45 0.15 0.25 0.90 0.55 1.65 0.70 0.80 0.10 3.65 0.80 6.40 1.50 2.75 0.70 7.95 1.65 11.50 2.05 3.60 0.45 7.20 0.85 8 0.95 0.85 0.10 8.75 0.25 17.65 0.30 13.30 0.05 17.85 -0.15 25.50 -0.95z m42.10 -40.30 c0.30 -0.70 0.50 -3.60 0.50 -6.45 0 -6.05 -0.15 -6.25 -4.70 -6.25 -2.20 0 -2.85 0.20 -3.30 0.95 -0.70 1.40 -0.65 11.70 0.10 12.45 0.35 0.35 1.95 0.60 3.75 0.60 2.95 0 3.20 -0.10 3.65 -1.30z m19.75 -14.70 l0 -15.75 -3.75 0 -3.75 0 -0.15 15.20 c-0.10 11.05 0.05 15.35 0.45 15.90 0.45 0.50 1.55 0.65 3.90 0.55 l3.30 -0.15 0 -15.75z m20.15 -10.20 c0.10 -20.45 0 -26.05 -0.50 -26.40 -1 -0.60 -6.15 -0.45 -6.80 0.20 -0.45 0.45 -0.60 6.95 -0.60 26.15 0 14.10 0.15 25.75 0.35 25.95 0.20 0.20 1.95 0.25 3.90 0.20 l3.50 -0.15 0.15 -25.95z m-119.70 -4.10 c0.70 -0.65 0.80 -2.60 0.80 -13.75 l0 -12.95 8.50 0 c4.65 0 10.75 -0.25 13.55 -0.55 12 -1.30 21.05 -8.35 24.30 -18.90 1.05 -3.45 1.15 -10.70 0.20 -14.55 -1.85 -7.30 -7.35 -13.90 -14.30 -17.10 -6.85 -3.15 -8.95 -3.40 -27.50 -3.40 -14.15 0 -16.70 0.10 -17.65 0.80 l-1.10 0.75 0 39.30 c0 35.90 0.05 39.40 0.85 40.25 0.70 0.75 1.60 0.90 6.20 0.90 4.20 0 5.55 -0.15 6.15 -0.80z"/>
  <path d="M94.90 93.20 c-0.25 -0.20 -0.40 -6.75 -0.40 -14.55 l0 -14.15 10.50 0 c5.75 0 11.60 0.25 12.95 0.55 5.40 1.15 8.90 5.35 9.40 11.35 0.65 8 -1.20 12.55 -6.35 15.35 l-2.75 1.50 -11.50 0.15 c-6.30 0.10 -11.65 0 -11.85 -0.20z"/>
 </g>
 <g fill="#bcc2c5">
  <path d="M121 204.65 c-0.70 -0.10 -9.45 -0.25 -19.50 -0.35 -10.05 -0.15 -19.15 -0.35 -20.25 -0.50 -1.10 -0.15 -2.90 -0.40 -4 -0.55 -1.10 -0.15 -2.65 -0.35 -3.50 -0.40 -0.80 -0.05 -1.70 -0.25 -2 -0.40 -0.50 -0.30 -2.95 -0.95 -5 -1.25 -1.30 -0.20 -2.95 -0.60 -3.10 -0.70 -0.10 -0.10 -0.35 -0.20 -0.65 -0.25 -0.25 -0.05 -0.55 -0.15 -0.60 -0.20 -0.10 -0.10 -0.70 -0.20 -1.35 -0.35 -0.70 -0.10 -1.50 -0.45 -1.90 -0.75 -0.35 -0.30 -0.65 -0.45 -0.65 -0.25 0 0.50 -2.65 -1 -3.55 -2 -1.10 -1.30 -1.55 -3.20 -0.75 -3.20 0.35 0 1.05 -0.45 1.55 -1 0.50 -0.55 1.20 -1 1.60 -1 0.35 0 0.80 -0.35 0.95 -0.75 0.35 -0.85 3.45 -1.95 4.20 -1.50 0.25 0.15 0.50 0.05 0.50 -0.30 0 -0.30 0.40 -0.45 1 -0.30 0.55 0.15 1 0.05 1 -0.25 0 -0.25 0.40 -0.40 0.85 -0.30 0.50 0.05 1.15 -0.05 1.45 -0.25 0.30 -0.15 1.60 -0.40 2.90 -0.45 1.25 -0.10 2.30 -0.35 2.30 -0.55 0 -0.20 0.80 -0.25 1.75 -0.05 1.05 0.20 1.75 0.10 1.75 -0.20 0 -0.50 1.65 -0.60 9.15 -0.55 3.15 0 4.85 -0.15 4.85 -0.50 0 -0.30 0.50 -0.55 1.05 -0.55 0.90 0 0.95 -0.10 0.45 -0.75 -0.55 -0.65 -0.40 -0.75 0.80 -0.75 1.25 0 2.30 1.05 7.70 7.50 3.45 4.15 6.65 7.65 7.10 7.80 1.45 0.45 2.50 -0.50 8.65 -8 5.15 -6.25 6.20 -7.25 7.45 -7.30 1.15 0 1.30 0.15 0.85 0.70 -0.85 1.05 0.45 1.40 6.20 1.60 6.65 0.30 10 0.65 13.75 1.45 0.85 0.20 2.20 0.45 2.90 0.55 2.15 0.35 3.35 0.60 3.60 0.75 0.15 0.05 0.50 0.15 0.75 0.20 0.30 0.10 0.65 0.20 0.90 0.25 0.20 0.05 0.60 0.20 0.85 0.25 0.30 0.05 0.60 0.20 0.75 0.25 0.15 0.05 0.40 0.15 0.65 0.25 1.45 0.40 5.05 2.35 6 3.20 1.20 1.20 1.50 3.05 0.40 3.05 -0.35 0 -0.95 0.30 -1.25 0.70 -0.35 0.40 -2.10 1.35 -3.95 2.10 -1.85 0.80 -3.50 1.65 -3.70 1.90 -0.20 0.30 -1.35 0.50 -2.60 0.40 -1.30 -0.05 -2.30 0.10 -2.30 0.35 0 0.25 -0.45 0.35 -1 0.20 -0.55 -0.15 -1 -0.05 -1 0.25 0 0.30 -0.45 0.40 -1 0.25 -0.55 -0.15 -1 -0.05 -1 0.25 0 0.35 -0.70 0.45 -1.75 0.25 -1.10 -0.20 -1.75 -0.10 -1.75 0.30 0 0.35 -0.75 0.45 -2.25 0.20 -1.60 -0.20 -2.25 -0.10 -2.25 0.30 0 0.45 -0.65 0.50 -2.25 0.25 -1.45 -0.20 -2.25 -0.15 -2.25 0.20 0 0.35 -0.65 0.45 -1.65 0.25 -0.85 -0.10 -2.75 -0.05 -4.10 0.20 -1.40 0.20 -3.05 0.35 -3.75 0.30z"/>
 </g>
 <g fill="#719570">
  <path d="M164.60 163.90 c-0.75 -0.75 -0.85 -14.05 -0.10 -15.45 0.95 -1.70 11 -1.20 11 0.55 0 0.30 -0.40 0.50 -0.85 0.50 -0.50 0 -1.15 0.55 -1.45 1.25 -0.50 1.05 -0.45 1.20 0.50 1.35 0.95 0.15 1.10 0.55 1.35 5.15 0.20 2.70 0.15 5.45 -0.10 6.10 -0.40 1.10 -0.70 1.15 -5.10 1.15 -2.95 0 -4.85 -0.20 -5.25 -0.60z"/>
  <path d="M184.60 163.90 c-0.75 -0.75 -0.80 -2.50 0 -3.30 0.45 -0.45 0.45 -0.60 0 -0.60 -0.50 0 -0.60 -1.85 -0.50 -7.60 l0.15 -7.65 3.40 -0.15 c1.85 -0.10 3.35 -0.35 3.35 -0.60 0 -0.30 0.75 -0.50 1.70 -0.50 1.65 0 1.65 0.05 2 2.65 0.45 3.80 0.35 7.30 -0.20 8.30 -0.25 0.50 -1.15 1.20 -2 1.55 -2 0.85 -1.90 1.40 0.40 1.60 l1.85 0.15 0 3.25 0 3.25 -4.75 0.15 c-3.30 0.10 -4.95 -0.05 -5.40 -0.50z"/>
  <path d="M204.35 164.15 c-0.20 -0.15 -0.35 -12.50 -0.35 -27.40 0 -20.35 0.15 -27.20 0.60 -27.65 0.35 -0.35 2.25 -0.60 4.95 -0.60 3.65 0 4.40 0.15 4.75 0.90 0.45 1 0.90 47.55 0.45 50 -0.15 0.85 -0.55 1.60 -0.80 1.60 -0.65 0 -1.65 0.95 -2.40 2.40 -0.50 0.95 -1 1.10 -3.75 1.10 -1.70 0 -3.30 -0.15 -3.45 -0.35z"/>
  <path d="M184.10 135.95 l0.15 -6.20 4.95 -0.15 c3.65 -0.10 5.10 0.05 5.40 0.50 0.70 1.10 0.50 10.20 -0.25 10.80 -0.35 0.30 -2.85 0.70 -5.50 0.90 l-4.90 0.35 0.15 -6.20z"/>
  <path d="M159.30 131.25 c-1.10 -0.95 -2.25 -1.75 -2.65 -1.75 -0.35 0 -0.65 -0.20 -0.65 -0.50 0 -0.85 3.55 -5.50 4.20 -5.50 0.95 0 3.80 1.50 3.80 2 0 0.20 0.65 0.65 1.45 1 2.05 0.80 2.35 2.75 0.75 4.90 -1.75 2.25 -4.20 2.20 -6.90 -0.15z"/>
  <path d="M163.50 123.70 c-0.70 -0.35 -1.65 -0.70 -2.10 -0.70 -0.50 0 -0.90 -0.15 -0.90 -0.35 0 -0.15 1.10 -2 2.45 -4.10 1.30 -2.10 2.80 -4.55 3.25 -5.40 0.45 -0.90 1.05 -1.65 1.35 -1.65 1.10 0 7.45 3.25 7.45 3.85 0 0.30 0.20 0.65 0.50 0.75 0.25 0.10 -0.60 1.95 -1.90 4.15 l-2.40 4 -3.25 0.10 c-2 0.05 -3.65 -0.20 -4.45 -0.65z"/>
  <path d="M169 108.10 c0 -0.50 0.20 -1.10 0.40 -1.35 0.50 -0.60 2.20 -5 3.35 -8.60 0.90 -2.85 1.75 -3.30 3.90 -1.95 0.60 0.40 1.90 0.85 2.95 1 2.65 0.50 3.15 2.80 1.55 7.40 l-0.90 2.45 -2.10 -0.10 c-1.60 -0.10 -2.40 0.10 -3.30 0.95 -1.55 1.45 -5.85 1.60 -5.85 0.20z"/>
  <path d="M174 93.45 c0 -0.35 0.20 -1.40 0.50 -2.40 0.25 -1 0.60 -2.65 0.75 -3.65 0.25 -1.55 0.50 -1.90 1.45 -1.90 0.95 0 1.25 -0.35 1.50 -1.80 0.20 -0.95 0.50 -2.10 0.65 -2.50 0.20 -0.50 -0.20 -0.70 -1.55 -0.70 l-1.80 0 0 -3.95 c0 -2.15 -0.15 -5 -0.35 -6.30 -0.30 -2.35 -0.30 -2.40 1 -2.15 0.80 0.15 1.40 0 1.55 -0.40 0.20 -0.50 -0.20 -0.70 -1.45 -0.70 -1.65 0 -1.70 -0.05 -2.25 -2.85 -0.90 -4.20 -2.85 -9.90 -4.80 -13.75 -2.05 -4.05 -2.10 -4.75 -0.45 -5.50 1.05 -0.45 1.25 -0.90 1.25 -2.65 0 -2.50 0.85 -3.40 3.05 -3.15 1.40 0.15 1.80 0.55 3.50 3.65 2.20 3.95 2.40 5.70 0.95 6.65 -1.40 0.85 -0.80 1.60 1.25 1.60 1.55 0 1.85 0.25 2.55 1.90 1.35 3.25 1.45 6.65 0.25 8.60 -0.55 0.95 -1.05 1.90 -1.05 2.15 0 0.20 0.85 0.35 1.95 0.35 2.35 0 2.45 0.25 2.90 7.40 l0.30 5.10 -1.35 0 c-0.75 0 -1.70 0.35 -2.10 0.75 -0.70 0.65 -0.50 0.75 1.55 0.75 l2.30 0 -0.30 4.90 c-0.40 6.75 -0.65 8.10 -1.50 8.10 -0.40 0 -0.75 -0.45 -0.75 -1 0 -0.70 -0.35 -1 -1.20 -1 -0.95 0 -1.25 0.35 -1.50 1.75 -0.20 0.95 -0.85 2.05 -1.45 2.50 -1.25 0.90 -5.35 1.05 -5.35 0.20z"/>
  <path d="M161.55 38.25 c-1.15 -1.50 -2.05 -3.25 -2.05 -4 0 -1 -0.25 -1.25 -1.20 -1.25 -1.75 0 -3.80 -2.05 -3.80 -3.80 0 -1.15 0.35 -1.65 1.80 -2.45 0.95 -0.50 2.10 -1.60 2.50 -2.35 0.40 -0.80 1.15 -1.40 1.65 -1.40 1 0 7.25 6.35 9.85 10.05 1.25 1.70 1.50 2.45 1.15 3.35 -0.25 0.60 -0.75 1.10 -1.15 1.10 -0.40 0 -1.15 0.50 -1.65 1.15 -1.15 1.35 -2.85 2.35 -4.10 2.35 -0.55 0 -1.75 -1.10 -3 -2.75z"/>
  <path d="M146.65 24.35 c-2.60 -1.70 -3.15 -2.30 -3.15 -3.45 0 -1.10 0.25 -1.40 1 -1.40 1.70 0 3.95 -1.40 4.75 -3 0.45 -0.85 1.10 -1.50 1.45 -1.50 0.75 0 6.45 4.05 7 4.95 0.20 0.30 0.10 0.55 -0.15 0.55 -0.30 0 -0.55 0.30 -0.55 0.70 0 0.35 -0.60 0.95 -1.35 1.25 -0.80 0.30 -1.90 1.35 -2.55 2.30 -1.45 2.30 -2.60 2.20 -6.45 -0.40z"/>
  <path d="M125.25 14.80 c-2.40 -0.55 -2.50 -0.60 -2.50 -2.30 l0 -1.75 2.85 -0.15 2.85 -0.15 -0.30 -2.40 c-0.35 -3.10 0.10 -3.25 5 -1.70 3.30 1.10 3.85 1.40 3.85 2.40 0 1.30 -1.10 1.75 -4.50 1.75 l-2.25 0 0.15 2.50 c0.20 2.45 0.20 2.50 -1.25 2.45 -0.75 0 -2.50 -0.30 -3.90 -0.65z"/>
  <path d="M117 8.45 c0 -2 2.95 -5.10 4.60 -4.85 1.70 0.25 1.90 3 0.30 4.10 -0.60 0.45 -1.50 0.80 -2 0.80 -0.50 0 -0.90 0.35 -0.90 0.75 0 0.40 -0.45 0.75 -1 0.75 -0.80 0 -1 -0.35 -1 -1.55z"/>
 </g>
 <g fill="#6b8d6a">
  <path d="M205.10 164.45 l-1.10 -0.40 0 -27.25 c0 -17.60 0.20 -27.35 0.50 -27.55 0.30 -0.15 0.50 0 0.50 0.45 0 0.40 0.40 1.40 0.85 2.20 0.80 1.40 0.80 1.60 0.05 2.45 -0.70 0.80 -0.80 3.50 -0.90 23.90 -0.10 12.65 -0.10 23.40 -0.05 23.90 0.05 0.65 0.50 0.85 2.30 0.85 1.80 0 2.35 -0.20 2.80 -1.10 0.75 -1.45 1.75 -2.40 2.40 -2.40 0.95 0 1.05 -3.25 0.90 -25.50 -0.10 -15.90 -0.30 -22.55 -0.75 -23.25 -0.40 -0.70 -0.55 -0.75 -0.60 -0.25 0 0.50 -0.25 0.40 -0.75 -0.35 -0.45 -0.60 -1.45 -1.15 -2.40 -1.30 -0.90 -0.10 -0.25 -0.25 1.50 -0.25 1.70 -0.05 3.40 0.05 3.85 0.20 0.70 0.30 0.80 3.20 0.80 27.75 0 21.55 -0.15 27.50 -0.60 27.70 -1.40 0.40 -8.30 0.55 -9.30 0.20z"/>
  <path d="M164.55 163.40 c-0.25 -0.65 -0.30 -1.35 -0.15 -1.65 0.15 -0.25 0.40 -0.10 0.50 0.25 0.15 0.40 0.55 0.95 0.90 1.15 0.95 0.55 0.90 1.35 -0.05 1.35 -0.45 0 -0.95 -0.50 -1.20 -1.10z"/>
  <path d="M184.55 163.80 c-0.40 -0.45 -0.55 -5.45 -0.45 -17.35 l0.15 -16.70 5.25 0 5.25 0 0.15 16.95 c0.05 11.60 -0.05 17.15 -0.40 17.50 -0.40 0.40 -0.45 0.30 -0.25 -0.30 0.20 -0.50 0.15 -0.90 -0.15 -0.90 -0.30 0 -0.60 -0.85 -0.70 -1.85 -0.15 -1.80 -0.25 -1.90 -2 -2.05 -1.55 -0.15 -2.20 0.15 -3.90 1.70 -1.40 1.30 -1.90 2 -1.50 2.40 0.25 0.25 0.50 0.70 0.50 0.90 0 0.65 -1.35 0.45 -1.95 -0.30z m4.30 -7 c0.45 -1 1.45 -2 2.25 -2.35 2.15 -0.85 2.55 -2.05 2.15 -6.05 -0.20 -1.95 -0.50 -3.30 -0.70 -3.10 -0.70 1.05 -3.10 1.70 -4.15 1.15 -0.55 -0.30 -1.55 -0.40 -2.20 -0.25 -1.10 0.30 -1.20 0.60 -1.30 3.70 -0.25 7.40 0 8.60 1.85 8.60 0.95 0 1.45 -0.40 2.10 -1.70z m4.05 -17.45 c1 -0.80 0.65 -8.20 -0.40 -8.85 -0.40 -0.25 -2.25 -0.50 -4.10 -0.50 -3.50 0 -4.35 0.60 -2.65 2 0.40 0.35 0.75 0.95 0.75 1.35 0 0.35 -0.35 0.80 -0.75 0.95 -0.55 0.20 -0.75 1.05 -0.75 2.90 0 1.45 0.15 2.80 0.35 3 0.50 0.50 6.75 -0.20 7.55 -0.85z"/>
  <path d="M173.40 158.15 c-0.15 -4.30 -0.20 -4.40 -1.40 -4.55 -0.90 -0.10 -1.70 0.35 -2.85 1.55 -1.20 1.30 -1.90 1.65 -2.85 1.50 -0.90 -0.20 -1.25 0 -1.40 0.70 -0.15 0.50 -0.40 -0.15 -0.60 -1.45 -0.50 -2.80 0 -4.95 0.90 -3.85 1.05 1.35 2.65 1.05 4.80 -0.85 1.10 -1 1.95 -2.15 1.80 -2.50 -0.30 -0.75 1.15 -1.15 2.55 -0.65 0.95 0.35 1.05 0.80 1.10 6.60 0.05 6.55 -0.15 7.85 -1.25 7.85 -0.50 0 -0.70 -1.10 -0.80 -4.35z"/>
  <path d="M162 136 c0 -0.25 -0.35 -0.50 -0.75 -0.50 -1 0 -6.75 -4.05 -6.75 -4.70 0 -0.30 0.75 -1.45 1.65 -2.60 0.85 -1.10 2.40 -3.20 3.35 -4.60 1.85 -2.75 2.35 -2.90 5.70 -1.30 1.90 0.90 4.20 0.90 5.10 -0.05 0.80 -0.80 2.20 -1 2.20 -0.35 0 0.75 -9.75 14.60 -10.25 14.60 -0.15 0 -0.25 -0.20 -0.25 -0.50z m3 -5 c0.70 -0.20 0.95 -0.40 0.60 -0.45 -0.40 -0.05 -0.55 -0.40 -0.35 -1 0.20 -0.70 0 -1.05 -0.75 -1.30 -0.55 -0.20 -1.50 -0.80 -2 -1.40 -0.55 -0.55 -1 -0.85 -1 -0.60 0 0.20 -0.45 0 -1.05 -0.55 -1.05 -0.95 -1.05 -0.90 -2 0.25 -1.10 1.35 -1.20 2.05 -0.30 2.05 0.40 0 1.55 0.80 2.65 1.75 2.05 1.80 2.25 1.85 4.20 1.25z"/>
  <path d="M172 120.95 c-0.60 -0.35 -0.55 -0.45 0.25 -0.45 0.85 0 0.85 -0.10 0.25 -0.50 -0.65 -0.40 -0.60 -0.50 0.15 -0.50 0.45 0 0.85 0.30 0.85 0.70 0 1 -0.65 1.35 -1.50 0.75z"/>
  <path d="M173.55 118.55 c-0.55 -0.35 -0.50 -0.50 0.25 -0.70 0.80 -0.20 0.80 -0.25 0.10 -0.30 -0.55 -0.05 -0.75 -0.30 -0.60 -0.80 0.30 -0.75 -0.25 -1 -1.75 -0.80 -0.35 0.10 -0.50 -0.10 -0.30 -0.40 0.15 -0.35 0 -0.40 -0.45 -0.25 -0.45 0.15 -0.80 0.05 -0.80 -0.30 0 -0.30 -0.20 -0.40 -0.50 -0.25 -0.25 0.15 -0.50 0.05 -0.50 -0.30 0 -0.35 -0.15 -0.45 -0.35 -0.30 -0.15 0.20 -0.60 -0.05 -0.95 -0.55 -0.60 -0.75 -0.75 -0.75 -1.20 -0.10 -1.15 1.75 -0.35 -0.35 1.70 -4.40 1.20 -2.40 2.45 -5.10 2.80 -6 0.35 -0.90 0.75 -1.55 0.85 -1.40 0.10 0.10 -0.15 1.05 -0.55 2.05 -0.45 1.05 -0.80 2.30 -0.80 2.80 0 1.45 1.75 1.15 3.15 -0.50 0.70 -0.85 1.35 -1.40 1.50 -1.25 0.15 0.15 1.40 0.25 2.80 0.30 1.75 0 2.55 0.20 2.55 0.65 0 0.95 -5.70 13.25 -6.15 13.25 -0.05 0 -0.40 -0.20 -0.80 -0.45z"/>
  <path d="M180.55 103.55 c-0.45 -0.30 -0.55 -0.90 -0.35 -1.70 0.35 -1.40 -0.10 -3 -0.70 -2.60 -0.25 0.15 -0.55 0.05 -0.75 -0.25 -0.15 -0.25 -0.80 -0.50 -1.40 -0.50 -0.65 0 -1.65 -0.40 -2.30 -0.85 -0.70 -0.45 -1.10 -0.60 -0.95 -0.35 0.10 0.25 -0.30 1 -0.95 1.65 l-1.15 1.25 0.70 -2 c0.35 -1.10 1 -3.35 1.35 -5 0.40 -1.90 0.70 -2.55 0.85 -1.80 0.40 2.35 3.85 0.60 4.40 -2.25 0.30 -1.55 0.25 -1.65 -1.10 -1.75 -0.80 0 -1.85 0 -2.35 0 -0.50 0.05 -0.80 -0.10 -0.65 -0.30 0.35 -0.60 0.45 -14.55 0.10 -17.10 -0.20 -1.25 -0.55 -3 -0.80 -3.95 -0.55 -2.05 -0.35 -2.45 0.75 -1.35 0.45 0.45 0.90 0.80 1.05 0.80 0.50 0 3.15 -4.15 2.90 -4.55 -0.15 -0.25 0 -0.45 0.30 -0.45 0.30 0 0.45 -0.20 0.30 -0.45 -0.15 -0.25 0.05 -0.55 0.45 -0.75 0.45 -0.15 0.75 -0.90 0.75 -1.80 0 -0.95 0.25 -1.50 0.70 -1.50 1.35 0 3.65 10.90 3.90 18.50 l0.15 5.25 -1.85 0 c-2.15 0 -3.05 0.95 -3.85 4.10 -0.90 3.40 -0.80 3.65 1.45 3.65 1.10 0 2 -0.20 2 -0.50 0 -0.25 0.35 -0.50 0.75 -0.50 1.20 0 0.95 3.75 -0.75 10.25 -1.70 6.65 -2 7.35 -2.95 6.80z m-1 -26.85 c0.85 -1.40 1.35 -1.70 2.75 -1.70 1.60 0 1.70 -0.10 1.70 -1.60 0 -1.90 -0.85 -7.45 -1.20 -7.75 -0.60 -0.60 -2.25 0.55 -2.80 1.90 -0.35 0.80 -1.30 2.30 -2.05 3.30 -1.20 1.50 -1.45 2.25 -1.45 4.65 0 1.55 0.15 2.95 0.30 3.15 0.55 0.55 1.70 -0.25 2.75 -1.95z"/>
  <path d="M172.05 57.35 c-0.65 -2 -1.25 -3.95 -1.40 -4.35 -0.10 -0.40 0.25 -0.25 0.80 0.40 0.95 1.05 2.30 6.05 1.95 7.10 -0.10 0.25 -0.70 -1.15 -1.35 -3.15z"/>
  <path d="M174.85 54.40 c-0.10 -0.90 -0.20 -1.70 -0.15 -1.75 0.05 -0.05 0.85 0.10 1.80 0.30 1.60 0.35 1.65 0.40 0.65 0.75 -0.65 0.20 -1.15 0.80 -1.15 1.35 0 1.60 -0.85 1.05 -1.15 -0.65z"/>
  <path d="M172.80 54.70 c-0.20 -0.50 -0.05 -0.70 0.30 -0.60 0.75 0.25 1.15 1.40 0.50 1.40 -0.25 0 -0.65 -0.35 -0.80 -0.80z"/>
  <path d="M180 54.05 c-0.50 -1.25 -0.90 -1.50 -2.65 -1.65 l-2.10 -0.15 -0.05 -2.35 c-0.05 -1.30 0.05 -2.35 0.25 -2.30 1.60 0.15 1.70 -0.25 0.70 -2.95 -0.15 -0.35 0.05 -0.65 0.45 -0.65 0.75 0 2.25 2.80 4.20 7.70 1.40 3.50 1.45 3.80 0.50 3.80 -0.35 0 -0.95 -0.65 -1.30 -1.45z"/>
  <path d="M168.55 49.20 c-1.75 -3.65 -6.50 -10.50 -9.55 -13.90 -8.60 -9.50 -17.60 -15.35 -30.10 -19.55 -1.60 -0.50 -2.90 -1.15 -2.90 -1.40 0 -0.20 -0.25 -0.25 -0.50 -0.10 -1.10 0.65 -5.15 -0.40 -6.65 -1.75 -1.25 -1.10 -1.55 -1.75 -1.55 -3.50 -0.05 -2 0.05 -2.15 1.30 -2.20 0.80 -0.05 1.80 -0.50 2.25 -0.95 0.80 -0.75 0.80 -0.95 0.15 -1.35 -1.55 -0.95 0.10 -1.05 4.45 -0.20 5.25 1 6.15 1.45 5.05 2.35 -0.45 0.30 -0.70 1 -0.60 1.45 0.15 0.85 1.10 1 4.10 0.55 l1.75 -0.25 -1.25 -0.70 c-1.25 -0.65 -1.25 -0.65 -0.15 -0.70 2.70 0 18.55 8.20 20.65 10.75 0.85 1.05 0.15 0.95 -1.80 -0.25 l-1.65 -1.05 -0.80 1.50 c-0.80 1.60 -4 3.60 -5.10 3.20 -1.30 -0.45 -0.55 0.65 1.25 1.85 3.05 2.05 3.45 2.10 4.55 0.55 0.55 -0.80 0.90 -1.50 0.80 -1.65 -0.10 -0.10 0.55 -0.50 1.50 -0.85 0.95 -0.35 1.75 -0.95 1.75 -1.35 0 -1.70 1.95 -0.35 7.20 4.85 3.55 3.55 5.30 5.65 4.90 5.80 -0.40 0.15 -1.05 -0.10 -1.50 -0.50 -0.70 -0.75 -0.85 -0.70 -1.40 0.30 -0.35 0.60 -0.90 1.65 -1.20 2.25 -0.25 0.65 -0.95 1.30 -1.50 1.45 -1.65 0.45 -1 2.95 1.20 4.70 1.20 0.95 2.25 0.55 4.20 -1.65 0.65 -0.75 1.45 -1.35 1.75 -1.25 0.35 0.05 0.55 -0.40 0.45 -1.05 -0.15 -1.70 0.85 -1.15 2.90 1.55 2.60 3.45 4.60 7.35 3.75 7.35 -0.40 0 -1.10 -0.65 -1.60 -1.50 -0.95 -1.65 -1.70 -1.90 -2.60 -0.80 -0.45 0.50 -0.45 1 0.05 2.05 0.65 1.45 0.30 1.95 -2.40 3.55 -0.85 0.50 -0.90 0.75 -0.30 2.40 1 2.70 0.50 2.65 -0.85 0z m-9.30 -18.70 c0.50 -0.55 1.90 -1.30 3.10 -1.55 l2.15 -0.55 -0.80 -1.35 c-0.45 -0.75 -1.25 -1.65 -1.75 -1.95 -0.80 -0.50 -1.05 -0.40 -1.65 0.80 -0.40 0.75 -1.50 1.80 -2.45 2.35 -1.70 0.90 -1.95 1.40 -1.20 2.65 0.60 0.90 1.55 0.75 2.60 -0.40z m-30.35 -17.35 c-0.15 -1 -2.85 -1.50 -4.30 -0.85 -0.60 0.25 -0.25 0.50 1.40 0.95 3.05 0.90 3.10 0.85 2.90 -0.10z"/>
 </g>
 <g fill="#638464">
  <path d="M184.35 163.65 c-0.20 -0.15 -0.30 -1.45 -0.30 -2.85 l0.05 -2.55 0.40 2.75 c0.45 2.85 0.40 3.25 -0.15 2.65z"/>
  <path d="M213.50 160.50 c0 -1.90 0.20 -2.50 0.75 -2.50 0.55 0 0.75 0.60 0.75 2.50 0 1.90 -0.20 2.50 -0.75 2.50 -0.55 0 -0.75 -0.60 -0.75 -2.50z"/>
  <path d="M193.50 156.25 c0 -2.55 0.15 -3.25 0.75 -3.25 0.60 0 0.75 0.70 0.75 3.25 0 2.55 -0.15 3.25 -0.75 3.25 -0.60 0 -0.75 -0.70 -0.75 -3.25z"/>
  <path d="M175.10 154.15 c-0.05 -0.35 -0.45 -0.65 -0.85 -0.65 -0.60 0 -0.75 -0.65 -0.75 -2.75 0 -2.05 0.20 -2.75 0.75 -2.75 0.85 0 1.40 2.55 1.10 5.05 -0.10 0.95 -0.25 1.40 -0.25 1.10z"/>
  <path d="M193.50 142.75 c0 -3 0.15 -3.75 0.75 -3.75 0.60 0 0.75 0.75 0.75 3.75 0 3 -0.15 3.75 -0.75 3.75 -0.60 0 -0.75 -0.75 -0.75 -3.75z"/>
  <path d="M184.15 143.50 c0 -1.50 0.10 -2.15 0.20 -1.35 0.10 0.75 0.10 1.95 0 2.75 -0.10 0.75 -0.20 0.10 -0.20 -1.40z"/>
  <path d="M158.10 140.40 c-0.35 -0.35 -0.60 -0.90 -0.60 -1.25 0 -0.35 -1.25 -1.85 -2.75 -3.35 -1.70 -1.65 -2.55 -2.85 -2.25 -3.05 0.30 -0.20 1.25 -1.25 2.05 -2.35 0.80 -1.15 1.45 -1.70 1.45 -1.30 0 1.10 5.45 4.65 6.85 4.50 0.60 -0.10 1.15 0.05 1.15 0.30 0 0.40 -4.85 7.10 -5.15 7.10 -0.10 0 -0.40 -0.25 -0.75 -0.60z"/>
  <path d="M213.50 135.50 c0 -3.65 0.15 -4.50 0.75 -4.50 0.60 0 0.75 0.85 0.75 4.50 0 3.65 -0.15 4.50 -0.75 4.50 -0.60 0 -0.75 -0.85 -0.75 -4.50z"/>
  <path d="M204.10 137.50 c0 -0.95 0.10 -1.35 0.25 -0.85 0.10 0.45 0.10 1.25 0 1.75 -0.15 0.45 -0.25 0.05 -0.25 -0.90z"/>
  <path d="M184.10 133 c0 -0.95 0.10 -1.35 0.25 -0.85 0.10 0.45 0.10 1.25 0 1.75 -0.15 0.45 -0.25 0.05 -0.25 -0.90z"/>
  <path d="M193.50 131.05 c0 -0.55 -0.40 -1.10 -0.85 -1.25 -0.50 -0.10 -0.20 -0.20 0.60 -0.15 1.15 0.10 1.55 0.35 1.65 1.25 0.10 0.75 -0.10 1.10 -0.60 1.10 -0.45 0 -0.80 -0.40 -0.80 -0.95z"/>
  <path d="M167.50 128 c-0.60 -0.40 -0.60 -0.50 0.25 -0.55 0.55 0 0.75 -0.15 0.40 -0.25 -0.80 -0.35 -0.25 -1.70 0.65 -1.70 0.85 0 0.90 1.05 0.10 2.15 -0.45 0.60 -0.85 0.70 -1.40 0.35z"/>
  <path d="M213.50 124.25 c0 -1.65 0.20 -2.25 0.75 -2.25 0.55 0 0.75 0.60 0.75 2.25 0 1.65 -0.20 2.25 -0.75 2.25 -0.55 0 -0.75 -0.60 -0.75 -2.25z"/>
  <path d="M204.15 113.50 c0 -1.50 0.10 -2.15 0.20 -1.35 0.10 0.75 0.10 1.95 0 2.75 -0.10 0.75 -0.20 0.10 -0.20 -1.40z"/>
  <path d="M175.40 115.15 c-0.80 -0.20 -0.80 -0.35 -0.05 -1.95 0.50 -1 1.20 -1.70 1.75 -1.70 0.50 0 0.90 0.10 0.90 0.20 0 0.35 -1.50 3.80 -1.65 3.75 -0.05 -0.05 -0.50 -0.15 -0.95 -0.30z"/>
  <path d="M213.40 112.15 c-0.10 -1.90 -0.15 -3.45 -0.10 -3.55 0.05 -0.05 0.45 0 0.90 0.20 1.10 0.40 1.20 6.70 0.10 6.70 -0.55 0 -0.75 -0.90 -0.90 -3.35z"/>
  <path d="M183.65 92.75 c-0.80 -0.85 -0.25 -4.75 0.65 -4.75 0.75 0 0.95 3.05 0.30 4.55 -0.30 0.70 -0.45 0.70 -0.95 0.20z"/>
  <path d="M175.55 79.90 c0.05 -1.85 0.10 -1.95 0.45 -0.90 0.60 1.80 0.60 3 0 3 -0.25 0 -0.50 -0.95 -0.45 -2.10z"/>
  <path d="M178.50 49.50 c0 -0.25 0.35 -0.50 0.75 -0.50 0.40 0 0.75 0.25 0.75 0.50 0 0.30 -0.35 0.50 -0.75 0.50 -0.40 0 -0.75 -0.20 -0.75 -0.50z"/>
  <path d="M165.75 44.25 c-1.55 -2.60 -1.50 -4 0.05 -1.90 1 1.35 2 4.15 1.50 4.15 -0.15 0 -0.85 -1 -1.55 -2.25z"/>
  <path d="M152.55 29 c-2.75 -2.50 -3.15 -3.65 -0.95 -2.45 0.60 0.35 1.50 1.10 1.90 1.65 0.75 1.05 2.05 3.30 1.85 3.30 -0.05 -0.05 -1.30 -1.15 -2.80 -2.50z"/>
  <path d="M159.75 22.50 c-0.50 -0.55 -0.70 -1 -0.40 -1 0.25 0 0.90 0.45 1.40 1 0.50 0.55 0.70 1 0.40 1 -0.25 0 -0.90 -0.45 -1.40 -1z"/>
  <path d="M141.60 21.25 c-1.05 -0.80 -1.50 -1.75 -0.70 -1.75 0.75 0.05 2.20 1.45 2 2 -0.10 0.30 -0.55 0.25 -1.30 -0.25z"/>
  <path d="M133.20 17.30 c-1.10 -0.85 -0.55 -1.75 0.65 -1 0.95 0.60 1.45 1.70 0.80 1.70 -0.25 0 -0.90 -0.30 -1.45 -0.70z"/>
  <path d="M129.85 16.15 c-0.65 -0.60 -0.35 -1.15 0.65 -1.15 0.55 0 1 0.35 1 0.75 0 0.75 -1.05 1.05 -1.65 0.40z"/>
  <path d="M119.05 12.70 c-0.85 -0.70 -1.55 -1.75 -1.55 -2.35 0.05 -1.05 0.05 -1.05 0.85 0.20 0.40 0.70 1.45 1.50 2.30 1.75 0.85 0.25 1.60 0.75 1.75 1.10 0.35 1.05 -1.75 0.65 -3.35 -0.70z"/>
  <path d="M138.25 9 c-0.40 -0.65 0.75 -0.65 1.75 0 0.60 0.40 0.55 0.50 -0.35 0.50 -0.60 0 -1.25 -0.20 -1.40 -0.50z"/>
 </g>
 <g fill="#284653">
  <path d="M156.25 143.25 c-0.25 -0.10 -1.10 -0.30 -1.85 -0.45 -2 -0.45 -4.90 -3.15 -4.90 -4.60 0 -1.20 3.25 -6.20 4 -6.20 0.75 0 4.80 4.30 5.65 5.95 0.80 1.65 0.80 1.70 -0.55 3.60 -0.75 1.05 -1.45 1.90 -1.60 1.90 -0.15 0 -0.45 -0.10 -0.75 -0.20z"/>
 </g>
 <g fill="#0f284b">
  <path d="M106.55 199.50 c-0.70 -0.90 -1.65 -1.50 -2.30 -1.50 -0.85 0 -2.40 -1.50 -5.95 -5.75 -5.05 -6 -5.85 -7.85 -3.65 -8.45 0.60 -0.15 1.60 -0.70 2.15 -1.20 0.55 -0.55 1.85 -1.30 2.90 -1.65 1.75 -0.65 1.95 -0.60 2.60 0.30 0.40 0.55 1.80 2.30 3.10 3.90 l2.35 2.85 1.25 -1.40 c0.70 -0.75 3.05 -3.65 5.25 -6.35 2.20 -2.75 4.60 -5.60 5.40 -6.40 0.75 -0.80 1.35 -1.50 1.35 -1.65 0 -0.65 5.80 -7.20 6.40 -7.20 0.95 0 1.85 -1.05 1.85 -2.20 0 -1.10 8.70 -12.25 9.65 -12.25 0.30 -0.05 0.60 -0.25 0.60 -0.55 0 -0.25 0.35 -0.50 0.75 -0.50 0.40 0 0.75 -0.35 0.75 -0.75 0 -0.45 0.55 -1.40 1.25 -2.15 0.70 -0.75 1.25 -1.55 1.25 -1.80 0 -0.20 1.65 -2.45 3.65 -4.95 3.15 -4 3.60 -4.40 3.75 -3.35 0.35 2.40 3.35 4.75 5.80 4.60 2.15 -0.20 1.60 0.85 -3.75 7.60 l-4.70 5.85 -2.85 -0.30 -2.85 -0.30 0.45 1.40 c1.30 4.25 1.60 3.70 -7.40 14.70 -7.30 8.95 -8.35 10.05 -8.60 8.95 -0.15 -0.65 -0.55 -1.25 -0.90 -1.40 -0.40 -0.10 -0.60 0.60 -0.60 2.50 0 2.30 -0.20 2.90 -1.40 4.05 -0.75 0.75 -1.90 1.35 -2.55 1.35 -0.90 0 -1.10 0.25 -0.95 1.25 0.20 1.70 -3.25 6.05 -5.20 6.45 -1.10 0.20 -1.40 0.55 -1.40 1.60 0 1.80 -2.25 4.65 -4.30 5.50 -2.05 0.85 -1.75 0.95 -3.15 -0.80z m27.45 -30.25 c0 -1.30 -0.20 -1.75 -0.80 -1.75 -0.60 0 -0.75 0.30 -0.50 1.15 0.15 0.60 0.30 1.40 0.30 1.75 0 0.30 0.25 0.60 0.50 0.60 0.30 0 0.50 -0.80 0.50 -1.75z"/>
  <path d="M85.10 176.20 l-3.50 -4.35 1.05 -1.10 c1.45 -1.50 5.70 -3.75 7.05 -3.75 0.60 0 1.30 0.40 1.60 0.90 0.30 0.45 1.95 2.50 3.60 4.50 1.70 1.95 2.95 3.90 2.80 4.25 -0.30 0.90 -6.45 3.85 -7.90 3.85 -0.90 0 -2.10 -1.10 -4.70 -4.30z"/>
  <path d="M75.55 164.40 c-3.25 -3.95 -3.70 -5.40 -1.90 -6.65 3.20 -2.25 5 -3.25 5.85 -3.25 0.55 0 2.30 1.65 4.45 4.30 3.35 4.05 3.45 4.30 2.65 5.20 -0.45 0.45 -1.55 1.20 -2.40 1.65 -0.85 0.45 -1.80 1.15 -2.15 1.55 -0.40 0.45 -1.30 0.80 -2.05 0.80 -1.15 0 -2 -0.70 -4.45 -3.60z"/>
  <path d="M67.05 153.80 c-2.80 -3.50 -3.10 -4.85 -1.40 -6.05 1.05 -0.80 1 -0.80 -1.35 -0.70 l-2.45 0.15 -3.15 -3.95 c-2.30 -2.80 -3 -4.05 -2.55 -4.35 0.40 -0.25 0.30 -0.40 -0.40 -0.40 -0.65 -0.05 -1.85 -1.25 -3.50 -3.55 -1.35 -1.95 -2.95 -4 -3.45 -4.60 -2.15 -2.50 -7.60 -11.35 -10.30 -16.80 -6.45 -12.85 -8.80 -23.50 -8.30 -37.80 0.25 -8.60 1.35 -14.30 4.30 -22.20 1.80 -4.90 4.50 -10.75 5.05 -10.95 0.25 -0.10 0.45 -0.45 0.45 -0.85 0 -0.55 4.50 -7.50 6.30 -9.70 4.30 -5.30 6.60 -7.75 10.30 -10.80 5.85 -4.95 9.50 -7.35 15.85 -10.55 9.30 -4.60 17.40 -6.80 28.45 -7.70 7.70 -0.60 8.80 -0.35 10.25 2.60 0.80 1.65 0.85 2.10 0.25 3.70 -1 2.75 -2.75 3.75 -6.50 3.65 -3.25 -0.10 -7.05 0.45 -13.15 1.80 -1.90 0.45 -4.15 0.90 -4.95 1 -1.40 0.25 -3.30 1.05 -10.10 4.30 -1.65 0.80 -3.80 1.45 -4.75 1.45 -1.90 0 -2.95 0.75 -2.95 2.05 0 0.50 -1.75 2.25 -4 4.05 -3.45 2.75 -4.20 3.10 -5.80 2.95 l-1.85 -0.15 0.30 1.95 c0.25 1.70 0.10 2.15 -1.85 4.30 -1.45 1.65 -2.65 2.55 -3.85 2.80 -1.30 0.30 -1.65 0.60 -1.55 1.35 0.10 0.50 0.40 1.05 0.65 1.20 0.20 0.15 -0.60 1.95 -1.80 4 -1.25 2.05 -2.25 4.05 -2.25 4.40 0 0.30 -0.35 0.60 -0.75 0.60 -0.45 0 -0.70 0.45 -0.70 1.15 0.05 1.65 -2.35 7.05 -3.40 7.50 -0.70 0.30 -0.90 1 -0.95 2.75 -0.05 3.40 -0.75 8.20 -1.35 9.35 -0.30 0.55 -0.55 3.35 -0.55 6.25 -0.05 4.15 -0.25 5.50 -0.95 6.50 -1.15 1.65 -1.10 2 0.55 2 1.35 0 1.45 0.20 2.05 3.15 0.80 3.95 0.75 5.30 -0.30 6.45 -0.75 0.85 -0.70 0.95 0.65 1.40 1.25 0.45 1.75 1.20 3.30 5.05 1.80 4.50 1.85 4.55 0.85 5.60 -1.35 1.45 -1.20 1.70 0.95 2.10 1.60 0.25 2.05 0.65 3.10 2.65 2.40 4.50 13.05 19.50 16.65 23.45 1.25 1.40 0.95 1.75 -2.05 2.20 -2.30 0.35 -2.25 0.35 0.70 0.30 l3.05 -0.10 5.55 6.85 c3.30 4.10 5.45 7.15 5.30 7.60 -0.15 0.35 -0.95 0.85 -1.80 1 -0.85 0.15 -2.30 0.85 -3.20 1.55 -2.65 2 -3.75 1.70 -6.65 -1.95z"/>
  <path d="M79.85 134.10 c-0.75 -0.85 -0.85 -4.60 -0.85 -41.65 l-0.05 -40.70 1.10 -0.85 c0.95 -0.80 2.65 -0.90 19.15 -0.90 20.30 0 22.10 0.20 29.05 3.40 2.95 1.35 4.85 2.70 7.25 5.10 3.45 3.40 6.55 8.55 5.40 8.95 -1.75 0.55 -1.50 2.05 0.30 2.05 1.35 0 1.65 1 2.15 7.15 0.25 3.55 0.20 3.95 -0.80 5.05 -1.10 1.15 -1.10 1.25 -0.30 2.45 0.75 1.15 0.75 1.50 0 3.95 -0.95 3.25 -1.10 3.50 -2.95 4.30 -1.25 0.55 -1.40 0.85 -1.10 2.15 0.25 1.30 -0.05 1.85 -2.05 4 -1.30 1.40 -2.60 2.40 -3 2.25 -0.35 -0.15 -0.65 0.05 -0.65 0.40 0 0.90 -1.55 1.85 -5.80 3.70 -4.45 1.85 -10.60 2.60 -22.15 2.60 l-8.40 0 -0.40 4.15 c-0.50 5.30 -0.50 7.05 0 10.25 0.30 1.95 0.25 2.60 -0.25 2.60 -0.60 0 -0.55 1.50 0.30 6.80 0.50 3.40 -0.15 3.70 -8.25 3.70 -6.05 0 -7 -0.10 -7.70 -0.90z m39.65 -43.85 c10 -5.45 8 -21.20 -3 -23.70 -1.25 -0.30 -4.05 -0.55 -6.25 -0.55 -2.20 0 -5.35 -0.20 -7.05 -0.45 -3.75 -0.55 -6.90 0 -8.45 1.45 -0.95 0.90 -1.10 1.35 -0.70 2.05 0.25 0.55 0.80 0.95 1.20 0.95 0.60 0 0.75 0.95 0.75 4.90 0 2.95 -0.20 5.10 -0.55 5.45 -0.40 0.40 -0.40 1.95 0.05 5.70 0.30 2.85 0.70 5.40 0.85 5.60 0.15 0.25 4.80 0.35 10.35 0.25 l10.05 -0.15 2.75 -1.50z"/>
 </g>
 <g fill="#0a1f3e">
  <path d="M105.90 200.35 c-1.30 -0.55 -9.05 -9.35 -8.65 -9.75 0.45 -0.45 3.40 2.15 4.55 3.95 1.15 1.85 1.35 1.95 2.90 1.70 1.40 -0.30 1.80 -0.15 2.70 1 0.90 1.10 1.30 1.30 2.60 1 1.55 -0.35 1.80 0 1 1.25 -0.30 0.50 -0.50 0.55 -0.50 0.15 0 -0.35 -0.35 -0.65 -0.80 -0.65 -0.40 0 -0.60 0.25 -0.40 0.55 0.35 0.55 -0.60 1.45 -1.55 1.40 -0.25 0 -1.10 -0.25 -1.85 -0.60z"/>
  <path d="M112.25 197.90 c0.25 -0.55 0.10 -0.90 -0.25 -0.90 -0.50 0 -0.50 -0.15 0 -0.70 0.30 -0.40 0.55 -1.15 0.50 -1.65 -0.05 -0.50 -0.10 -1.25 -0.05 -1.75 0.10 -1.30 5.05 -2.65 5.05 -1.35 0 0.35 -1.05 1.85 -2.35 3.40 -3.30 3.95 -3.25 3.90 -2.90 2.95z"/>
  <path d="M118.80 189.90 c0.20 -0.55 0.05 -0.90 -0.30 -0.90 -0.50 0 -0.50 -0.15 -0.05 -0.70 0.40 -0.45 0.50 -1.40 0.25 -2.50 -0.30 -1.75 -0.30 -1.80 1.35 -1.85 0.95 -0.05 2.15 -0.05 2.70 0 0.70 0.05 0.80 -0.05 0.35 -0.35 -0.50 -0.35 -0.50 -0.55 0.15 -1.10 2.25 -1.85 -1.45 -8.65 -4.15 -7.60 -0.45 0.15 0.10 -0.80 1.15 -2.10 l2 -2.35 0.35 1.50 c0.70 2.60 3.50 4.40 6.55 4.10 1.85 -0.20 1.75 -0.10 -9.80 13.65 -0.65 0.80 -0.80 0.85 -0.55 0.20z"/>
  <path d="M93.45 186.40 c-6.40 -7.65 -6.50 -7.75 -5.25 -7.55 1.20 0.25 7.15 -2.45 8.05 -3.65 0.40 -0.50 1.15 0.15 3.40 2.80 1.55 1.90 2.85 3.55 2.85 3.65 0 0.15 -0.75 0.55 -1.60 0.90 -0.90 0.35 -2.10 1.05 -2.65 1.60 -0.55 0.50 -1.50 1 -2.10 1.15 -1.25 0.35 -1.50 1.65 -0.55 2.60 0.30 0.30 0.45 0.70 0.30 0.85 -0.15 0.15 -1.25 -0.90 -2.45 -2.35z"/>
  <path d="M105.25 187.20 c-0.45 -0.70 -0.70 -1.40 -0.60 -1.55 0.35 -0.35 2.10 0.85 2.80 1.90 0.95 1.55 -1.15 1.20 -2.20 -0.35z"/>
  <path d="M113.50 181.55 c0 -0.25 0.45 -0.95 1.05 -1.60 0.75 -0.85 0.95 -0.95 0.75 -0.30 -0.15 0.45 -0.05 0.85 0.20 0.85 0.30 0 0.50 0.35 0.50 0.75 0 0.45 -0.45 0.75 -1.25 0.75 -0.70 0 -1.25 -0.20 -1.25 -0.45z"/>
  <path d="M80.15 170.05 c-3.60 -4.40 -4.15 -5.75 -1.80 -4.20 1.10 0.75 1.25 0.70 2.30 -0.20 0.60 -0.60 1.85 -1.40 2.75 -1.85 0.85 -0.45 1.60 -1.15 1.60 -1.55 0 -1.65 1.10 -0.85 4.20 3 1.90 2.35 2.25 3.05 1.60 3.15 -0.45 0.10 -2.10 0.90 -3.70 1.80 -2.15 1.20 -2.90 1.95 -3.10 2.95 -0.25 1.25 -0.45 1.10 -3.85 -3.10z"/>
  <path d="M132.30 173.40 c0.15 -0.50 0.10 -0.90 -0.20 -0.90 -0.25 0 -0.60 -0.65 -0.75 -1.45 -0.15 -0.80 -0.45 -2 -0.60 -2.70 -0.40 -1.60 1.45 -3.50 2.95 -3.05 1.50 0.45 3.40 2.60 3 3.30 -1.20 1.95 -4.75 5.80 -4.40 4.80z"/>
  <path d="M125 167.20 c1.20 -1.60 5.65 -7.20 5.75 -7.20 0.10 0 0.10 0.50 0.10 1.15 -0.05 0.60 0.10 1.55 0.30 2.15 0.50 1.40 -1.10 3.20 -2.85 3.20 -0.75 0 -1.95 0.40 -2.70 0.90 -1.30 0.85 -1.30 0.85 -0.60 -0.20z"/>
  <path d="M71.65 159.55 c-3.20 -4.05 -3.95 -5.55 -2.20 -4.50 0.75 0.50 1.20 0.40 2.60 -0.70 0.95 -0.70 2.40 -1.45 3.20 -1.65 0.85 -0.20 1.75 -0.70 2 -1.05 0.45 -0.55 1.05 -0.05 3 2.45 1.35 1.75 2.10 2.90 1.70 2.55 -0.40 -0.30 -1.05 -0.55 -1.45 -0.45 -1 0.20 -3.85 1.80 -5.40 3.10 -1.15 0.95 -1.20 1.20 -0.70 2.60 0.30 0.90 0.50 1.60 0.45 1.60 -0.05 0 -1.50 -1.80 -3.20 -3.95z"/>
  <path d="M142.05 161.80 c0.50 -0.70 0.55 -1 0.15 -1.15 -0.35 -0.10 -0.50 -0.65 -0.35 -1.20 0.65 -2.45 -2.75 -7.65 -4.40 -6.70 -1.10 0.70 0.65 -1.90 3.95 -5.90 2.35 -2.85 3.35 -3.75 3.65 -3.25 0.80 1.25 0.45 2.65 -1.05 4.25 -1.45 1.55 -1.50 1.70 -0.75 2.85 1.10 1.70 3.40 2.45 4.60 1.55 1.05 -0.85 2.15 -0.95 2.15 -0.30 0 0.50 -6.40 8.60 -7.90 10.05 -0.70 0.70 -0.75 0.65 -0.05 -0.20z m0.95 -9.65 c-0.40 -0.15 -0.90 -0.55 -1.10 -0.80 -0.20 -0.30 -0.60 -0.20 -1.15 0.30 -0.75 0.80 -0.70 0.85 1.10 0.80 1.05 0 1.55 -0.15 1.15 -0.30z"/>
  <path d="M63.75 149.75 c-1.35 -1.80 -2.55 -3.55 -2.65 -3.85 -0.10 -0.50 0.75 -0.60 3.25 -0.55 7.15 0.25 9.15 0.45 9.75 1.05 0.95 0.95 0 1.35 -1 0.45 -1 -0.90 -2.10 -1.10 -2.10 -0.40 0 0.20 -1.10 1.10 -2.50 1.95 -2.30 1.45 -2.45 1.65 -2.20 3.05 0.20 0.85 0.25 1.55 0.15 1.55 -0.10 -0.05 -1.30 -1.50 -2.70 -3.25z"/>
  <path d="M55.40 139.05 c-1.35 -1.60 -2.40 -3.25 -2.40 -3.60 0.05 -0.45 0.30 -0.35 0.80 0.30 0.65 0.90 1.35 1 6.70 1.05 5.80 0 6 0.05 7 1.30 1.30 1.65 1.30 1.65 -0.50 2.40 -1.10 0.45 -2.20 0.50 -4.65 0.05 -4.20 -0.70 -4.25 -0.70 -4.45 0.45 -0.10 0.80 -0.60 0.45 -2.50 -1.95z"/>
  <path d="M79.85 134.10 c-0.75 -0.85 -0.85 -4.55 -0.85 -41.55 0 -22.35 0.10 -40.80 0.25 -41.10 0.20 -0.25 0.80 -0.70 1.40 -1 1.10 -0.50 1.10 -0.50 -0.05 0.40 l-1.10 0.90 0 39.90 c0.05 31.30 0.20 39.95 0.70 40.45 0.75 0.75 1.35 2.90 0.85 2.90 -0.25 0 -0.75 -0.40 -1.20 -0.90z"/>
  <path d="M50.65 132.90 c-0.25 -0.35 -1.05 -1.45 -1.80 -2.40 l-1.30 -1.75 3.95 -0.05 c2.85 0 4.30 -0.30 5.30 -0.90 l1.35 -0.90 2 2 2 2 -2.20 0.60 c-2.10 0.60 -6.30 0.40 -8.25 -0.35 -0.70 -0.25 -0.80 -0.10 -0.50 1 0.35 1.45 0.20 1.70 -0.55 0.75z"/>
  <path d="M82.50 132.60 c0 -0.30 0.45 -0.80 0.95 -1.10 1.30 -0.65 5.40 -0.65 5.80 0.05 0.50 0.75 0.35 0.80 -3.35 1.20 -2.35 0.25 -3.40 0.20 -3.40 -0.15z"/>
  <path d="M93.60 129.95 c-0.45 -1.85 -0.45 -3.45 -0.15 -5.20 0.25 -1.40 0.35 -3.95 0.20 -5.75 -0.30 -4.05 0.35 -7.20 1.50 -7.40 0.75 -0.15 0.85 0.40 0.85 5.35 0 4.80 -0.10 5.50 -0.85 5.70 -0.85 0.20 -0.85 0.25 0 0.30 0.75 0.05 0.85 0.60 0.85 4.30 0 3.35 -0.15 4.25 -0.70 4.25 -0.40 0 -0.80 0.25 -0.90 0.60 -0.10 0.30 -0.50 -0.65 -0.80 -2.15z"/>
  <path d="M42.40 120.85 c-1.85 -3.05 -2.10 -5.05 -0.35 -2.80 1 1.30 2.70 5.35 2.40 5.65 -0.10 0.10 -1.05 -1.15 -2.05 -2.85z"/>
  <path d="M55.25 122.50 c-0.15 -0.25 -1.25 -0.50 -2.40 -0.55 -4.35 -0.10 -6.05 -1.35 -3.35 -2.45 0.80 -0.35 1.50 -0.95 1.50 -1.30 0 -1.55 0.90 -0.75 4.65 4.20 0.25 0.30 0.35 0.60 0.20 0.60 -0.15 0 -0.45 -0.20 -0.60 -0.50z"/>
  <path d="M48.05 112.80 c-0.30 -0.35 -1.45 -0.80 -2.60 -1 -2.20 -0.35 -3.95 -1.25 -3.95 -2.05 0 -0.95 3.45 -4.35 4 -4 0.50 0.30 4 6.90 4 7.50 0 0.50 -0.90 0.25 -1.45 -0.45z"/>
  <path d="M37.90 112.70 c-0.25 -0.20 -0.40 -0.80 -0.40 -1.40 0 -0.70 0.15 -0.85 0.55 -0.45 0.30 0.30 0.45 0.95 0.35 1.40 -0.05 0.45 -0.30 0.65 -0.50 0.45z"/>
  <path d="M96 106.80 c0 -0.45 0.40 -0.80 0.90 -0.85 0.45 -0.05 1.70 -0.15 2.70 -0.20 1.20 -0.15 2.15 0.10 2.65 0.55 0.40 0.45 0.75 0.55 0.75 0.25 0 -0.35 1.80 -0.55 5.15 -0.55 2.80 0 6 -0.30 7.10 -0.60 2.60 -0.70 9.75 -1.10 9.75 -0.50 0 0.25 -0.55 0.70 -1.25 1 -0.75 0.35 -1.25 0.40 -1.25 0.10 0 -0.30 -0.35 -0.50 -0.75 -0.50 -0.40 0 -0.75 0.20 -0.75 0.45 0 0.85 -1.60 1.05 -2.30 0.30 -1 -1 -1.95 -0.95 -3 0.15 -0.75 0.75 -2.10 0.85 -10.30 1 -8.25 0.15 -9.40 0.05 -9.40 -0.60z"/>
  <path d="M34.20 103.85 c-0.65 -1.80 -2.15 -7.05 -2 -7.20 0.10 -0.10 0.65 0.95 1.25 2.35 0.60 1.35 1.30 2.50 1.55 2.50 0.30 0 0.50 0.70 0.50 1.50 0 1.50 -0.80 2.05 -1.30 0.85z"/>
  <path d="M128.65 103.20 c-0.70 -0.75 -0.85 -2.65 -0.25 -3.50 0.45 -0.70 6.60 -1.30 6.60 -0.60 0 0.25 -0.70 1.10 -1.60 1.90 -1.15 1.05 -1.90 1.40 -2.75 1.20 -0.90 -0.25 -1.10 -0.15 -0.85 0.45 0.35 1 -0.40 1.40 -1.15 0.55z"/>
  <path d="M40.75 99.40 c-3 -1.05 -3.50 -2.30 -1.75 -4.55 0.55 -0.70 1 -1.60 1 -2 0 -0.40 0.30 -0.85 0.70 -1 0.50 -0.20 0.90 0.70 1.55 3.30 0.50 2 1 3.90 1.10 4.20 0.30 0.75 -0.55 0.75 -2.60 0.05z"/>
  <path d="M136.80 97.40 c0.20 -0.55 0.05 -0.90 -0.30 -0.90 -0.30 0 -0.40 -0.25 -0.25 -0.55 0.20 -0.25 -0.05 -0.95 -0.50 -1.45 -1.20 -1.30 -0.70 -2.20 1.90 -3.45 1.25 -0.60 2.40 -1.40 2.55 -1.80 0.30 -0.85 1.80 -1 1.80 -0.20 0 0.85 -2.85 6 -4.25 7.70 -0.70 0.85 -1.10 1.10 -0.95 0.65z"/>
  <path d="M31.60 93.85 c-0.35 -0.40 -0.75 -2.30 -0.90 -4.15 -0.15 -2.45 -0.10 -3.15 0.25 -2.35 0.25 0.60 0.95 1.20 1.50 1.40 1.20 0.35 1.20 0.25 0.35 3.40 -0.50 2 -0.70 2.30 -1.20 1.70z"/>
  <path d="M97.15 92.60 c-1.70 -0.15 -3.45 -1.60 -1.95 -1.60 0.45 0 0.80 0.25 0.80 0.55 0 0.40 3.05 0.50 10.40 0.35 9.60 -0.15 10.50 -0.25 12.55 -1.35 l2.15 -1.10 -0.90 1.25 c-0.55 0.70 -1.40 1.40 -1.95 1.50 -1.35 0.30 -19.05 0.65 -21.10 0.40z"/>
  <path d="M94.30 89.90 c-0.45 -1.35 -0.95 -6.25 -0.85 -8.25 0.05 -1.90 0.95 -5.20 1 -3.75 0.05 0.30 0.40 0.60 0.80 0.60 0.65 0 0.75 1 0.75 6 0 5.05 -0.10 6 -0.75 6 -0.45 0 -0.85 -0.30 -0.95 -0.60z"/>
  <path d="M37.25 88.05 c-2.30 -0.35 -2.35 -0.85 -0.65 -4.45 1.50 -3.15 1.70 -6.25 0.65 -8.55 -0.85 -1.90 -0.85 -1.95 0.40 -3.85 1.05 -1.65 2.05 -6.20 1.85 -8.45 -0.30 -3.70 -0.30 -3.75 1.60 -4.85 1.05 -0.60 2.05 -0.95 2.20 -0.75 0.20 0.15 -0.25 2.50 -1 5.10 -1.75 6.30 -2.45 13.65 -2.05 20.65 0.25 4.50 0.20 5.60 -0.35 5.55 -0.35 -0.05 -1.55 -0.25 -2.65 -0.40z"/>
  <path d="M142.05 87.60 c-0.05 -0.35 -0.50 -1.10 -1.05 -1.70 -0.60 -0.70 -1 -1.80 -1 -2.90 0 -1.20 0.35 -2.15 1 -2.75 1.15 -1.05 1.25 -3 0.40 -6.70 -0.45 -2.10 -0.75 -2.50 -1.80 -2.65 -0.70 -0.10 -1.50 -0.50 -1.75 -0.95 -0.75 -1.20 0.45 -3.80 1.85 -4.05 1.25 -0.25 1.70 0.50 2.85 4.60 0.80 2.80 0.85 14.75 0.10 16.50 -0.35 0.70 -0.60 0.95 -0.60 0.60z"/>
  <path d="M124.35 85.70 c0.40 -0.65 1.05 -2.35 1.40 -3.80 0.60 -2.55 0.65 -2.60 0.70 -0.80 0.05 1 0.30 2 0.55 2.15 0.30 0.15 0.50 0.80 0.50 1.45 0 0.85 -0.40 1.20 -1.95 1.60 l-1.95 0.55 0.75 -1.15z"/>
  <path d="M30.10 77 c0 -2.60 0.20 -5.40 0.40 -6.25 0.25 -1 0.40 0.30 0.40 3.75 0 2.90 -0.15 5.70 -0.40 6.25 -0.30 0.65 -0.40 -0.70 -0.40 -3.75z"/>
  <path d="M94.10 74.50 c-0.05 -0.70 -0.70 -2.40 -1.45 -3.80 -1.30 -2.50 -1.30 -2.65 -0.50 -3.90 1.70 -2.55 3.10 -3.05 8.60 -3 2.80 0 5.40 0.25 5.80 0.50 0.90 0.55 0.90 0.55 4.90 0.65 2.25 0.05 3.55 0.25 3.70 0.70 0.15 0.45 -1.85 0.55 -9.45 0.45 l-9.70 -0.15 0 2.80 c0 2.25 -0.15 2.75 -0.85 2.80 -0.75 0 -0.75 0.10 0.10 0.45 0.80 0.35 0.85 0.45 0.15 0.45 -0.55 0.05 -0.90 0.60 -1.05 1.70 -0.15 1.20 -0.20 1.30 -0.25 0.35z"/>
  <path d="M124.30 72.15 c-0.20 -0.55 -0.75 -1.40 -1.30 -1.90 -1.55 -1.40 -1.30 -2.30 0.45 -1.60 1.55 0.55 2.30 2.45 1.55 3.80 -0.30 0.55 -0.45 0.50 -0.70 -0.30z"/>
  <path d="M31.05 67.20 c-0.10 -3.35 4.90 -19.70 5.35 -17.45 0.10 0.55 0.55 1.40 0.95 1.85 1 1.15 0.55 2.15 -1.30 2.95 -1.75 0.80 -3.05 3.80 -3.05 7.05 0 1.10 -0.25 2.45 -0.60 3.05 -0.30 0.60 -0.75 1.80 -0.95 2.60 l-0.35 1.50 -0.05 -1.55z"/>
  <path d="M130.60 60.40 c-0.85 -0.85 -0.75 -1.90 0.30 -2.25 0.45 -0.20 1.10 -0.65 1.35 -1 0.60 -0.80 2.45 -0.35 1.95 0.45 -0.15 0.25 0.15 0.60 0.70 0.75 1 0.25 1 0.25 -0.05 1.45 -1.10 1.30 -3.25 1.60 -4.25 0.60z"/>
  <path d="M44.20 54.35 c-0.75 -0.85 -0.25 -5 0.70 -5.70 0.45 -0.35 1.20 -0.65 1.70 -0.65 1.10 0 0.85 1.35 -0.80 4.75 -0.75 1.55 -1.20 2 -1.60 1.60z"/>
  <path d="M124.30 52.50 c-0.80 -0.25 -0.85 -0.40 -0.20 -0.60 0.80 -0.35 2.25 0.35 1.60 0.70 -0.25 0.15 -0.90 0.10 -1.40 -0.10z"/>
  <path d="M83.90 50.15 c0.60 -0.10 1.50 -0.10 2 0 0.45 0.15 -0.05 0.25 -1.15 0.20 -1.10 0 -1.50 -0.10 -0.85 -0.20z"/>
  <path d="M49.80 44.55 c0.20 -0.35 0.15 -0.80 -0.10 -1 -0.25 -0.15 -0.80 -1 -1.30 -1.90 -0.70 -1.40 -0.70 -1.70 -0.05 -2.60 0.40 -0.60 1.20 -1.05 1.80 -1.05 0.60 0 1.65 -0.45 2.35 -1 1.25 -1 3 -1.35 3 -0.60 0 0.20 -1.05 1.85 -2.35 3.70 -1.35 1.85 -2.70 3.75 -3.05 4.25 -0.35 0.50 -0.50 0.60 -0.30 0.20z"/>
  <path d="M38.50 44.15 c0 -0.35 3.10 -5.65 3.35 -5.65 0.10 0 0.05 0.45 -0.10 1.05 -0.20 0.65 -0.05 1.35 0.50 2 1.15 1.25 0.35 2.25 -2 2.55 -0.95 0.10 -1.75 0.15 -1.75 0.05z"/>
  <path d="M56.25 34.85 c-0.25 -0.35 -0.50 -1.85 -0.50 -3.35 l0 -2.75 2.50 -0.05 c1.40 0 3 -0.20 3.65 -0.45 1.75 -0.60 1.30 0.25 -2.05 3.85 -2.25 2.40 -3.25 3.15 -3.60 2.75z"/>
  <path d="M44.50 34.60 c0 -0.55 4.15 -5.60 4.40 -5.35 0.15 0.10 -0.05 0.60 -0.40 1.05 -0.55 0.65 -0.55 0.85 -0.05 1.20 1.05 0.60 -0.05 2.05 -2.15 2.75 -1 0.35 -1.80 0.50 -1.80 0.35z"/>
  <path d="M63.35 27.70 c-0.45 -0.50 0.10 -1.20 0.95 -1.20 0.40 0 0.70 0.35 0.70 0.75 0 0.75 -1.05 1.05 -1.65 0.45z"/>
  <path d="M66.60 25.20 c-0.40 -0.45 -0.40 -0.75 0.15 -1.20 0.40 -0.35 0.75 -1.15 0.75 -1.75 0 -0.60 0.30 -1.35 0.65 -1.60 0.80 -0.70 7.35 -1.15 7.35 -0.60 0 0.30 -0.85 1 -1.85 1.60 -1.05 0.60 -2.95 1.80 -4.20 2.65 -1.75 1.15 -2.40 1.35 -2.85 0.90z"/>
  <path d="M53.50 23.75 c0.35 -0.40 0.85 -0.75 1.10 -0.75 0.30 0 0.25 0.35 -0.10 0.75 -0.35 0.40 -0.85 0.75 -1.10 0.75 -0.30 0 -0.25 -0.35 0.10 -0.75z"/>
  <path d="M82.15 16.70 c-0.45 -0.45 -0.35 -0.80 0.35 -1.45 1.05 -0.95 6.50 -1.70 6.50 -0.85 0 0.75 -0.85 1.20 -3.75 2.15 -2 0.60 -2.65 0.65 -3.10 0.15z"/>
  <path d="M98.85 12.45 c0.15 -0.50 0.50 -0.95 0.80 -0.95 0.30 0 0.95 -0.35 1.45 -0.80 0.80 -0.80 1.05 -0.75 3.35 0.20 1.40 0.55 2.55 0.80 2.65 0.60 0.10 -0.30 0.45 -0.25 0.90 0 1.35 0.85 -0.15 1.35 -4.80 1.65 -4.35 0.25 -4.55 0.25 -4.35 -0.70z"/>
  <path d="M110.75 8.80 c-0.25 -0.30 -0.95 -1.45 -1.50 -2.55 -0.95 -1.85 -1.45 -2.25 -3.50 -3.05 -0.90 -0.35 -0.85 -0.40 0.35 -0.60 0.75 -0.10 2 0.15 2.75 0.50 1.75 0.80 3.45 4.10 2.85 5.40 -0.35 0.70 -0.55 0.75 -0.95 0.30z"/>
  <path d="M92.75 4 c0.55 -0.25 1.45 -0.45 2 -0.45 l1 0 -1 0.45 c-0.55 0.25 -1.45 0.45 -2 0.45 l-1 0 1 -0.45z"/>
 </g>
</svg>