<svg xmlns="http://www.w3.org/2000/svg" viewBox="0 0 96 96" role="img" aria-labelledby="title desc">
  <title id="title">NammaPark Intel logo</title>
  <desc id="desc">A formal shield mark with the letters NPI and a parking route motif.</desc>
  <defs>
    <linearGradient id="shield" x1="16" x2="80" y1="10" y2="86" gradientUnits="userSpaceOnUse">
      <stop stop-color="#143B63"/>
      <stop offset="1" stop-color="#0D6B62"/>
    </linearGradient>
    <linearGradient id="gold" x1="20" x2="76" y1="18" y2="82" gradientUnits="userSpaceOnUse">
      <stop stop-color="#E5C267"/>
      <stop offset="1" stop-color="#B98522"/>
    </linearGradient>
  </defs>
  <path fill="url(#gold)" d="M48 4 84 16v27c0 23-14.7 40.5-36 49C26.7 83.5 12 66 12 43V16L48 4Z"/>
  <path fill="url(#shield)" d="M48 10.5 78 20.7v23.2c0 18.9-11.9 33.2-30 41.1-18.1-7.9-30-22.2-30-41.1V20.7l30-10.2Z"/>
  <path fill="none" stroke="#F8FBFF" stroke-linecap="round" stroke-linejoin="round" stroke-width="4" d="M30 59c8-18 29-8 36-25"/>
  <circle cx="30" cy="59" r="4.5" fill="#F8FBFF"/>
  <circle cx="66" cy="34" r="4.5" fill="#F8FBFF"/>
  <path fill="#F8FBFF" d="M30 28h11.2c8.7 0 14.2 5 14.2 12.4S49.8 53 41 53h-4.9v12H30V28Zm10.6 19c5.2 0 8.2-2.4 8.2-6.6s-3-6.5-8.2-6.5h-4.5V47h4.5Z"/>
  <path fill="#E5C267" d="M58 55h8v10h-8z"/>
</svg>
